<svg version="1.1" xmlns="http://www.w3.org/2000/svg" viewBox="0 0 400 400" fill="currentColor" xml:space="preserve">
	<g>
		<path d="M220.51,227.03H47.78V25.67l27.35-0.44C75.72,25.22,90.38,25,172.37,25C288.3,25,337.11,92.79,356.1,151.1H300.5
			c-27.98-56.95-55.59-69.15-128.13-70.51c-32.59-0.61-54.46,0.03-69,0.08v90.77h117.13V227.03z"/>
	</g>
	<g>
		<path d="M162.81,375.51c-0.72,0-1.41,0-2.08-0.01H47.18V249.63h56.95v70.28l56.98,0c46.32,0.47,88.84-14.14,113.62-38.98
			c14.07-14.1,23.1-31.94,26.99-53.23h-56.8v-55.59h114.25l0.32,27.47c0.58,49.25-14.7,89.83-45.4,120.61
			C264.7,369.69,193.45,375.51,162.81,375.51z"/>
	</g>
</svg>
